<svg t="1767534273469" class="icon" viewBox="0 0 1024 1024" version="1.1" xmlns="http://www.w3.org/2000/svg" p-id="4817" width="1024" height="1024"><path d="M519.912727 0C798.301091 0 1023.976727 225.675636 1024 504.040727v15.941818C1023.953455 798.324364 798.277818 1023.976727 519.912727 1024H0V504.040727A503.947636 503.947636 0 0 1 504.087273 0h15.825454z m-19.595636 268.613818a297.588364 297.588364 0 0 0-110.382546 18.757818 156.811636 156.811636 0 0 0-71.726545 53.620364 134.446545 134.446545 0 0 0-24.762182 79.778909 128 128 0 0 0 23.598546 78.848c16.500364 21.876364 38.353455 39.098182 63.441454 50.082909 31.883636 13.963636 65.070545 24.715636 99.072 32.116364 23.901091 5.050182 47.522909 11.357091 70.772364 18.850909a107.287273 107.287273 0 0 1 43.170909 25.786182 59.112727 59.112727 0 0 1 16.756364 43.962182 68.654545 68.654545 0 0 1-30.906182 56.971636 132.421818 132.421818 0 0 1-80.453818 22.807273 128.698182 128.698182 0 0 1-58.251637-11.333819 92.299636 92.299636 0 0 1-34.443636-28.741818 229.678545 229.678545 0 0 1-22.644364-43.426909 87.645091 87.645091 0 0 0-20.759273-33.047273 43.124364 43.124364 0 0 0-29.952-11.124363 48.477091 48.477091 0 0 0-35.84 14.312727c-9.076364 9.076364-14.103273 21.457455-13.963636 34.304a132.119273 132.119273 0 0 0 23.389091 71.051636 180.037818 180.037818 0 0 0 61.090909 58.414546 265.960727 265.960727 0 0 0 134.213818 30.440727 284.858182 284.858182 0 0 0 117.480728-22.272 169.541818 169.541818 0 0 0 75.240727-61.579636 157.858909 157.858909 0 0 0 25.716363-88.669091 148.596364 148.596364 0 0 0-14.871272-69.352727 127.790545 127.790545 0 0 0-41.262546-46.964364 252.625455 252.625455 0 0 0-64.162909-31.534545 826.949818 826.949818 0 0 0-84.224-23.738182 1495.342545 1495.342545 0 0 1-53.294545-14.173091 174.242909 174.242909 0 0 1-31.860364-13.335273 78.266182 78.266182 0 0 1-24.762182-20.410182 45.940364 45.940364 0 0 1-8.96-28.299636 54.248727 54.248727 0 0 1 26.414546-45.102546 117.946182 117.946182 0 0 1 69.585454-18.734545 106.798545 106.798545 0 0 1 67.700364 17.245091 140.171636 140.171636 0 0 1 35.84 48.058182c5.678545 11.333818 12.986182 21.76 21.713454 30.952727 8.075636 6.818909 18.478545 10.216727 29.021091 9.448727a45.428364 45.428364 0 0 0 35.141819-15.755636c9.053091-9.565091 14.103273-22.225455 14.149818-35.374546a98.327273 98.327273 0 0 0-11.310546-44.171636 138.542545 138.542545 0 0 0-35.607272-43.217454 186.88 186.88 0 0 0-61.34691-33.024c-28.392727-8.820364-58.018909-13.009455-87.738181-12.427637z" fill="#000000" p-id="4818"></path></svg>